<?xml version="1.0" encoding="UTF-8" standalone="no"?>
<!DOCTYPE svg PUBLIC "-//W3C//DTD SVG 1.1//EN" "http://www.w3.org/Graphics/SVG/1.1/DTD/svg11.dtd">
<svg xmlns="http://www.w3.org/2000/svg" version="1.1" viewBox="0 0 1096 596">
<g stroke-width="2.00" fill="none" stroke-linecap="butt">
<path stroke="#8b95e2" vector-effect="non-scaling-stroke" d="
  M 229.25 154.46
  L 238.41 154.83
  A 0.85 0.83 78.1 0 1 239.13 155.31
  Q 242.03 161.45 248.24 172.28
  Q 351.12 351.59 454.11 530.84
  C 458.57 538.59 463.17 547.20 467.77 555.38
  A 0.97 0.96 -12.1 0 0 468.54 555.87
  L 475.75 556.46"
/>
<path stroke="#868bdd" vector-effect="non-scaling-stroke" d="
  M 475.75 556.46
  Q 490.00 556.54 504.25 556.48
  C 506.48 556.47 507.80 556.17 508.74 553.92
  Q 511.12 548.26 513.01 545.04
  Q 530.13 515.88 538.50 501.28
  Q 671.78 268.95 805.52 35.85
  A 1.42 1.42 0.0 0 0 804.29 33.73
  L 668.99 33.78
  A 2.36 2.35 10.8 0 0 666.80 35.26
  Q 665.85 37.62 664.42 40.12
  C 606.60 141.45 548.04 242.36 490.24 343.70
  C 489.70 344.65 488.53 345.54 487.71 346.25"
/>
<path stroke="#8b95e2" vector-effect="non-scaling-stroke" d="
  M 487.71 346.25
  C 487.14 346.27 486.68 346.12 486.38 345.59
  Q 397.03 190.05 307.78 34.35
  A 1.20 1.18 -14.5 0 0 306.74 33.75
  L 233.25 33.79"
/>
<path stroke="#93a2e9" vector-effect="non-scaling-stroke" d="
  M 233.25 33.79
  Q 141.57 34.04 49.89 33.71
  C 44.78 33.70 38.89 33.28 33.36 33.23
  A 1.41 1.40 -3.1 0 0 31.95 34.79
  Q 32.44 39.09 32.15 43.68
  C 31.79 49.52 32.22 57.05 32.24 61.10
  Q 32.37 106.84 31.92 153.47
  A 1.01 1.01 0.0 0 0 32.92 154.49
  C 46.28 154.59 59.84 154.64 73.34 154.58
  Q 151.30 154.27 229.25 154.46"
/>
<path stroke="#1f38cc" vector-effect="non-scaling-stroke" d="
  M 233.25 33.79
  Q 233.28 34.37 233.95 34.43
  Q 233.99 34.43 233.95 34.43
  C 231.34 34.54 224.30 33.24 225.48 38.21
  A 0.75 0.74 64.1 0 1 225.23 38.95
  L 223.31 40.52
  A 0.41 0.40 45.4 0 0 223.31 41.15
  L 224.66 42.26
  A 0.79 0.79 0.0 0 1 224.84 43.27
  L 222.67 46.89
  A 0.70 0.69 -49.6 0 0 222.73 47.70
  L 223.97 49.25
  A 1.29 1.27 -60.1 0 1 224.24 50.28
  L 223.32 55.38
  A 2.02 1.99 40.4 0 0 223.41 56.40
  C 224.49 59.29 221.76 59.23 220.92 60.96
  A 1.22 1.19 -42.7 0 0 220.87 61.89
  Q 222.03 65.17 222.14 68.61
  C 222.36 74.91 222.90 81.17 222.54 87.47
  C 222.44 89.26 222.77 93.53 224.96 94.00
  A 0.57 0.57 0.0 0 1 225.41 94.57
  Q 225.38 95.63 225.89 96.10
  Q 232.99 102.59 235.01 111.99
  C 235.38 113.70 236.41 115.20 236.69 116.97
  Q 237.12 119.59 237.68 120.67
  C 239.74 124.62 242.65 128.05 239.22 132.42
  A 1.50 1.48 -26.7 0 0 238.90 133.37
  L 238.95 138.49
  Q 238.96 138.99 238.76 139.45
  C 237.06 143.41 236.10 146.88 233.61 150.46
  A 1.94 1.92 4.8 0 1 232.83 151.11
  L 229.03 152.83
  A 0.53 0.53 0.0 0 0 228.78 153.56
  L 229.25 154.46"
/>
<path stroke="#1221c0" vector-effect="non-scaling-stroke" d="
  M 487.71 346.25
  Q 487.52 346.73 487.00 346.92
  Q 485.90 347.31 486.48 347.55
  L 487.03 347.78
  Q 487.40 347.93 487.03 348.10
  L 486.71 348.24
  Q 485.30 348.87 486.84 348.96
  L 488.90 349.09
  A 0.91 0.91 0.0 0 1 489.65 349.57
  C 490.91 351.86 487.05 352.59 485.45 350.91
  A 0.54 0.53 -46.4 0 0 484.65 350.93
  L 484.28 351.37
  A 0.78 0.77 47.8 0 0 484.24 352.31
  Q 485.74 354.48 485.37 356.09
  Q 483.90 362.35 485.26 368.49
  C 486.15 372.48 486.03 376.00 486.49 380.26
  Q 486.94 384.48 483.81 387.96
  A 1.07 1.03 -29.3 0 0 483.55 388.83
  C 484.14 392.63 487.88 390.59 487.69 396.93
  Q 487.13 415.35 487.28 433.78
  C 487.29 434.46 487.81 435.12 487.29 435.97
  A 1.94 1.88 -30.1 0 0 487.03 436.89
  Q 486.98 450.36 487.25 463.83
  C 487.31 466.78 488.94 468.70 488.45 471.81
  C 487.72 476.33 487.70 485.37 482.52 486.91
  A 1.17 1.16 2.6 0 0 481.77 487.59
  L 480.63 490.46
  Q 480.46 490.89 480.10 491.18
  C 476.57 494.00 483.19 499.01 476.72 502.12
  A 0.82 0.79 -9.6 0 0 476.28 502.72
  Q 476.03 504.35 474.60 505.20
  A 0.48 0.47 -37.5 0 0 474.50 505.94
  Q 478.53 510.08 474.48 514.58
  A 0.39 0.39 0.0 0 0 474.65 515.22
  Q 475.18 515.38 474.99 516.00
  A 0.46 0.02 -71.9 0 1 474.82 516.44
  L 474.46 516.09
  Q 473.90 515.53 473.85 516.32
  L 473.77 517.55
  Q 473.71 518.64 474.25 517.69
  L 474.56 517.14
  A 0.59 0.58 36.0 0 1 475.47 517.00
  Q 479.50 520.78 476.13 524.97
  A 1.68 1.65 -26.0 0 0 475.78 525.96
  L 475.77 532.06
  A 0.83 0.82 -9.4 0 1 475.21 532.84
  L 473.49 533.44
  A 1.37 1.32 -82.4 0 0 472.82 533.97
  C 469.81 538.55 475.68 538.69 477.62 541.14
  A 1.15 1.14 32.4 0 1 477.84 542.10
  Q 477.12 545.28 479.01 547.67
  A 0.66 0.65 38.0 0 1 479.10 548.36
  Q 478.99 548.61 478.77 548.75
  A 0.70 0.69 -18.6 0 0 478.46 549.36
  Q 478.62 552.08 476.33 553.55
  A 0.62 0.62 0.0 0 0 476.10 554.33
  C 476.61 555.47 478.30 554.51 478.80 555.77
  Q 479.00 556.27 478.48 556.12
  Q 477.04 555.69 475.75 556.46"
/>
<path stroke="#f19dc2" vector-effect="non-scaling-stroke" d="
  M 151.46 203.81
  A 1.22 1.22 0.0 0 0 150.24 202.59
  L 33.22 202.59
  A 1.22 1.22 0.0 0 0 32.00 203.81
  L 32.00 554.67
  A 1.22 1.22 0.0 0 0 33.22 555.89
  L 150.24 555.89
  A 1.22 1.22 0.0 0 0 151.46 554.67
  L 151.46 203.81"
/>
<path stroke="#a1a1a1" vector-effect="non-scaling-stroke" d="
  M 900.99 437.50
  L 939.13 437.50
  A 0.64 0.63 0.0 0 0 939.77 436.87
  L 939.71 426.56
  A 0.58 0.58 0.0 0 0 939.13 425.98
  L 901.15 426.03
  A 0.64 0.63 -0.0 0 1 900.51 425.40
  L 900.15 395.62
  A 0.55 0.55 0.0 0 0 899.71 395.09
  C 898.53 394.84 892.46 394.07 891.87 395.56
  Q 884.24 414.73 866.79 424.05
  C 863.34 425.90 858.95 427.08 855.01 428.56
  A 0.67 0.66 -11.6 0 0 854.58 429.21
  L 854.81 436.92
  A 0.60 0.60 0.0 0 0 855.41 437.50
  L 875.04 437.50
  A 1.49 1.49 0.0 0 1 876.53 438.99
  Q 876.42 487.80 876.40 535.31
  Q 876.39 546.46 882.30 555.66
  C 893.38 572.89 926.22 563.27 941.24 556.81
  A 0.77 0.77 0.0 0 0 941.71 556.10
  L 941.77 546.86
  A 0.67 0.66 83.2 0 0 940.95 546.21
  C 932.27 548.29 908.30 552.95 903.52 542.51
  Q 900.33 535.54 900.30 526.69
  Q 900.20 482.51 900.33 438.16
  A 0.66 0.66 0.0 0 1 900.99 437.50"
/>
<path stroke="#a1a1a1" vector-effect="non-scaling-stroke" d="
  M 649.57 558.11
  C 678.15 575.02 709.12 561.58 726.05 535.54
  Q 727.68 533.03 728.19 531.82
  A 1.00 0.98 40.8 0 0 728.12 530.93
  Q 726.52 528.33 723.86 526.80
  A 0.75 0.74 -51.8 0 0 722.96 526.91
  C 717.37 532.41 710.82 537.94 703.00 539.99
  C 686.99 544.18 671.17 541.34 658.79 530.25
  C 644.04 517.02 638.69 497.01 639.39 477.56
  A 0.55 0.55 0.0 0 1 639.94 477.03
  L 728.77 476.78
  A 0.46 0.46 0.0 0 0 729.23 476.31
  Q 728.64 452.05 712.14 436.59
  C 694.48 420.03 667.59 417.61 647.36 431.27
  C 628.01 444.33 620.26 466.67 618.89 488.94
  C 617.27 515.43 625.34 543.77 649.57 558.11"
/>
<path stroke="#a1a1a1" vector-effect="non-scaling-stroke" d="
  M 760.86 486.89
  C 770.26 495.42 781.71 500.69 793.05 506.06
  C 803.04 510.78 818.38 519.12 818.44 533.03
  C 818.52 553.41 795.36 560.99 780.20 552.18
  C 768.94 545.63 762.35 531.13 761.18 518.02
  A 0.56 0.56 0.0 0 0 760.62 517.50
  L 752.99 517.50
  A 0.51 0.51 0.0 0 0 752.48 518.02
  L 753.32 553.29
  A 1.04 1.04 0.0 0 0 753.80 554.15
  C 762.27 559.56 772.13 562.76 781.93 564.53
  C 811.78 569.94 840.41 552.79 837.38 519.42
  C 835.13 494.68 806.36 484.03 787.80 474.41
  C 781.46 471.12 772.69 465.63 770.76 458.51
  C 767.43 446.25 772.84 434.00 786.48 432.47
  C 797.30 431.25 805.07 434.02 811.33 443.18
  Q 818.47 453.61 820.86 466.35
  A 0.69 0.67 85.7 0 0 821.50 466.91
  L 828.14 467.13
  A 0.49 0.49 0.0 0 0 828.65 466.62
  L 827.59 434.85
  A 1.04 1.02 -74.2 0 0 827.15 434.04
  C 807.66 420.67 777.07 416.25 759.12 435.16
  C 745.67 449.32 745.87 473.27 760.86 486.89"
/>
<path stroke="#a1a1a1" vector-effect="non-scaling-stroke" d="
  M 1030.45 543.10
  C 1033.14 553.36 1034.06 564.62 1047.86 565.40
  C 1058.64 566.01 1066.91 557.00 1073.66 549.91
  C 1075.65 547.82 1074.11 542.73 1072.92 540.19
  A 0.51 0.51 0.0 0 0 1072.25 539.94
  C 1068.94 541.48 1063.69 544.31 1060.21 543.11
  C 1055.80 541.59 1054.23 536.20 1054.24 532.25
  Q 1054.28 497.63 1054.22 463.01
  C 1054.19 444.96 1050.15 429.73 1030.52 424.61
  C 1014.42 420.42 996.11 422.36 981.31 428.57
  C 961.05 437.07 953.00 457.26 964.98 476.39
  A 0.93 0.93 0.0 0 0 966.01 476.79
  Q 977.14 473.66 986.76 467.21
  A 1.60 1.60 0.0 0 0 987.24 465.05
  C 982.06 456.41 977.00 445.74 987.00 437.78
  C 992.97 433.03 1001.63 431.76 1008.99 432.73
  C 1021.05 434.30 1029.24 442.66 1029.94 455.01
  Q 1030.52 465.50 1029.92 480.90
  A 0.71 0.70 82.4 0 1 1029.43 481.55
  Q 1013.21 486.58 997.22 492.28
  C 981.68 497.83 962.58 505.06 956.52 521.96
  C 951.97 534.64 955.60 550.63 966.74 558.75
  C 988.83 574.85 1014.09 558.82 1030.05 542.99
  A 0.24 0.24 0.0 0 1 1030.45 543.10"
/>
<path stroke="#a1a1a1" vector-effect="non-scaling-stroke" d="
  M 238.00 459.58
  Q 238.48 450.46 238.19 441.39
  C 238.11 438.95 237.47 436.80 234.50 437.53
  Q 225.17 439.82 215.83 442.09
  C 208.34 443.91 197.18 447.32 187.61 449.17
  A 0.74 0.74 0.0 0 0 187.00 449.90
  L 187.00 453.87
  A 0.93 0.92 -79.3 0 0 187.58 454.73
  L 210.23 463.73
  A 0.75 0.74 11.1 0 1 210.69 464.40
  Q 210.98 500.11 210.34 535.81
  C 210.05 551.90 203.46 558.05 187.24 557.74
  A 1.43 1.43 0.0 0 0 185.79 559.24
  L 186.07 565.24
  A 0.52 0.51 -88.1 0 0 186.52 565.73
  C 190.33 566.18 195.09 565.75 197.75 565.75
  Q 227.74 565.74 257.74 565.77
  C 259.05 565.77 260.90 566.15 262.74 565.75
  A 0.49 0.49 0.0 0 0 263.13 565.27
  L 263.11 558.51
  A 0.47 0.47 0.0 0 0 262.67 558.04
  C 245.23 556.82 238.38 554.33 238.25 535.25
  Q 238.08 509.24 238.58 470.82
  A 1.04 1.02 72.2 0 1 238.98 470.02
  C 250.28 461.29 263.06 455.30 277.48 454.45
  C 294.59 453.45 309.20 461.71 309.23 480.50
  Q 309.29 507.37 309.22 534.23
  C 309.18 551.93 302.89 556.70 285.64 557.88
  A 0.69 0.68 88.2 0 0 285.00 558.57
  L 285.00 565.27
  A 0.52 0.51 0.0 0 0 285.52 565.78
  L 359.95 565.83
  A 0.48 0.47 -88.7 0 0 360.42 565.37
  L 360.62 558.58
  A 0.51 0.50 -87.0 0 0 360.16 558.06
  C 341.09 556.34 336.92 552.37 336.99 532.76
  Q 337.07 507.43 336.95 482.13
  Q 336.89 471.23 335.41 465.91
  C 328.30 440.38 302.04 433.92 278.93 438.65
  C 263.28 441.86 251.01 450.07 238.88 460.02
  A 0.54 0.54 0.0 0 1 238.00 459.58"
/>
<path stroke="#a1a1a1" vector-effect="non-scaling-stroke" d="
  M 641.41 467.76
  L 700.29 467.85
  A 0.72 0.72 0.0 0 0 701.00 467.05
  C 698.78 448.26 690.49 429.00 667.38 432.47
  C 650.85 434.96 642.75 451.87 640.56 466.78
  A 0.86 0.86 0.0 0 0 641.41 467.76"
/>
<path stroke="#a1a1a1" vector-effect="non-scaling-stroke" d="
  M 980.29 529.33
  C 981.69 542.20 994.28 549.17 1006.36 546.33
  C 1015.48 544.19 1022.78 538.47 1029.57 532.29
  A 1.28 1.26 -21.4 0 0 1029.99 531.35
  L 1030.18 489.58
  A 0.40 0.39 77.6 0 0 1029.62 489.22
  Q 1014.54 496.15 999.56 503.26
  C 988.78 508.39 978.81 515.72 980.29 529.33"
/>
</g>
<path fill="#ffffff" d="
  M 0.00 0.00
  L 1096.00 0.00
  L 1096.00 596.00
  L 0.00 596.00
  L 0.00 0.00
  Z
  M 229.25 154.46
  L 238.41 154.83
  A 0.85 0.83 78.1 0 1 239.13 155.31
  Q 242.03 161.45 248.24 172.28
  Q 351.12 351.59 454.11 530.84
  C 458.57 538.59 463.17 547.20 467.77 555.38
  A 0.97 0.96 -12.1 0 0 468.54 555.87
  L 475.75 556.46
  Q 490.00 556.54 504.25 556.48
  C 506.48 556.47 507.80 556.17 508.74 553.92
  Q 511.12 548.26 513.01 545.04
  Q 530.13 515.88 538.50 501.28
  Q 671.78 268.95 805.52 35.85
  A 1.42 1.42 0.0 0 0 804.29 33.73
  L 668.99 33.78
  A 2.36 2.35 10.8 0 0 666.80 35.26
  Q 665.85 37.62 664.42 40.12
  C 606.60 141.45 548.04 242.36 490.24 343.70
  C 489.70 344.65 488.53 345.54 487.71 346.25
  C 487.14 346.27 486.68 346.12 486.38 345.59
  Q 397.03 190.05 307.78 34.35
  A 1.20 1.18 -14.5 0 0 306.74 33.75
  L 233.25 33.79
  Q 141.57 34.04 49.89 33.71
  C 44.78 33.70 38.89 33.28 33.36 33.23
  A 1.41 1.40 -3.1 0 0 31.95 34.79
  Q 32.44 39.09 32.15 43.68
  C 31.79 49.52 32.22 57.05 32.24 61.10
  Q 32.37 106.84 31.92 153.47
  A 1.01 1.01 0.0 0 0 32.92 154.49
  C 46.28 154.59 59.84 154.64 73.34 154.58
  Q 151.30 154.27 229.25 154.46
  Z
  M 151.46 203.81
  A 1.22 1.22 0.0 0 0 150.24 202.59
  L 33.22 202.59
  A 1.22 1.22 0.0 0 0 32.00 203.81
  L 32.00 554.67
  A 1.22 1.22 0.0 0 0 33.22 555.89
  L 150.24 555.89
  A 1.22 1.22 0.0 0 0 151.46 554.67
  L 151.46 203.81
  Z
  M 900.99 437.50
  L 939.13 437.50
  A 0.64 0.63 0.0 0 0 939.77 436.87
  L 939.71 426.56
  A 0.58 0.58 0.0 0 0 939.13 425.98
  L 901.15 426.03
  A 0.64 0.63 -0.0 0 1 900.51 425.40
  L 900.15 395.62
  A 0.55 0.55 0.0 0 0 899.71 395.09
  C 898.53 394.84 892.46 394.07 891.87 395.56
  Q 884.24 414.73 866.79 424.05
  C 863.34 425.90 858.95 427.08 855.01 428.56
  A 0.67 0.66 -11.6 0 0 854.58 429.21
  L 854.81 436.92
  A 0.60 0.60 0.0 0 0 855.41 437.50
  L 875.04 437.50
  A 1.49 1.49 0.0 0 1 876.53 438.99
  Q 876.42 487.80 876.40 535.31
  Q 876.39 546.46 882.30 555.66
  C 893.38 572.89 926.22 563.27 941.24 556.81
  A 0.77 0.77 0.0 0 0 941.71 556.10
  L 941.77 546.86
  A 0.67 0.66 83.2 0 0 940.95 546.21
  C 932.27 548.29 908.30 552.95 903.52 542.51
  Q 900.33 535.54 900.30 526.69
  Q 900.20 482.51 900.33 438.16
  A 0.66 0.66 0.0 0 1 900.99 437.50
  Z
  M 649.57 558.11
  C 678.15 575.02 709.12 561.58 726.05 535.54
  Q 727.68 533.03 728.19 531.82
  A 1.00 0.98 40.8 0 0 728.12 530.93
  Q 726.52 528.33 723.86 526.80
  A 0.75 0.74 -51.8 0 0 722.96 526.91
  C 717.37 532.41 710.82 537.94 703.00 539.99
  C 686.99 544.18 671.17 541.34 658.79 530.25
  C 644.04 517.02 638.69 497.01 639.39 477.56
  A 0.55 0.55 0.0 0 1 639.94 477.03
  L 728.77 476.78
  A 0.46 0.46 0.0 0 0 729.23 476.31
  Q 728.64 452.05 712.14 436.59
  C 694.48 420.03 667.59 417.61 647.36 431.27
  C 628.01 444.33 620.26 466.67 618.89 488.94
  C 617.27 515.43 625.34 543.77 649.57 558.11
  Z
  M 760.86 486.89
  C 770.26 495.42 781.71 500.69 793.05 506.06
  C 803.04 510.78 818.38 519.12 818.44 533.03
  C 818.52 553.41 795.36 560.99 780.20 552.18
  C 768.94 545.63 762.35 531.13 761.18 518.02
  A 0.56 0.56 0.0 0 0 760.62 517.50
  L 752.99 517.50
  A 0.51 0.51 0.0 0 0 752.48 518.02
  L 753.32 553.29
  A 1.04 1.04 0.0 0 0 753.80 554.15
  C 762.27 559.56 772.13 562.76 781.93 564.53
  C 811.78 569.94 840.41 552.79 837.38 519.42
  C 835.13 494.68 806.36 484.03 787.80 474.41
  C 781.46 471.12 772.69 465.63 770.76 458.51
  C 767.43 446.25 772.84 434.00 786.48 432.47
  C 797.30 431.25 805.07 434.02 811.33 443.18
  Q 818.47 453.61 820.86 466.35
  A 0.69 0.67 85.7 0 0 821.50 466.91
  L 828.14 467.13
  A 0.49 0.49 0.0 0 0 828.65 466.62
  L 827.59 434.85
  A 1.04 1.02 -74.2 0 0 827.15 434.04
  C 807.66 420.67 777.07 416.25 759.12 435.16
  C 745.67 449.32 745.87 473.27 760.86 486.89
  Z
  M 1030.45 543.10
  C 1033.14 553.36 1034.06 564.62 1047.86 565.40
  C 1058.64 566.01 1066.91 557.00 1073.66 549.91
  C 1075.65 547.82 1074.11 542.73 1072.92 540.19
  A 0.51 0.51 0.0 0 0 1072.25 539.94
  C 1068.94 541.48 1063.69 544.31 1060.21 543.11
  C 1055.80 541.59 1054.23 536.20 1054.24 532.25
  Q 1054.28 497.63 1054.22 463.01
  C 1054.19 444.96 1050.15 429.73 1030.52 424.61
  C 1014.42 420.42 996.11 422.36 981.31 428.57
  C 961.05 437.07 953.00 457.26 964.98 476.39
  A 0.93 0.93 0.0 0 0 966.01 476.79
  Q 977.14 473.66 986.76 467.21
  A 1.60 1.60 0.0 0 0 987.24 465.05
  C 982.06 456.41 977.00 445.74 987.00 437.78
  C 992.97 433.03 1001.63 431.76 1008.99 432.73
  C 1021.05 434.30 1029.24 442.66 1029.94 455.01
  Q 1030.52 465.50 1029.92 480.90
  A 0.71 0.70 82.4 0 1 1029.43 481.55
  Q 1013.21 486.58 997.22 492.28
  C 981.68 497.83 962.58 505.06 956.52 521.96
  C 951.97 534.64 955.60 550.63 966.74 558.75
  C 988.83 574.85 1014.09 558.82 1030.05 542.99
  A 0.24 0.24 0.0 0 1 1030.45 543.10
  Z
  M 238.00 459.58
  Q 238.48 450.46 238.19 441.39
  C 238.11 438.95 237.47 436.80 234.50 437.53
  Q 225.17 439.82 215.83 442.09
  C 208.34 443.91 197.18 447.32 187.61 449.17
  A 0.74 0.74 0.0 0 0 187.00 449.90
  L 187.00 453.87
  A 0.93 0.92 -79.3 0 0 187.58 454.73
  L 210.23 463.73
  A 0.75 0.74 11.1 0 1 210.69 464.40
  Q 210.98 500.11 210.34 535.81
  C 210.05 551.90 203.46 558.05 187.24 557.74
  A 1.43 1.43 0.0 0 0 185.79 559.24
  L 186.07 565.24
  A 0.52 0.51 -88.1 0 0 186.52 565.73
  C 190.33 566.18 195.09 565.75 197.75 565.75
  Q 227.74 565.74 257.74 565.77
  C 259.05 565.77 260.90 566.15 262.74 565.75
  A 0.49 0.49 0.0 0 0 263.13 565.27
  L 263.11 558.51
  A 0.47 0.47 0.0 0 0 262.67 558.04
  C 245.23 556.82 238.38 554.33 238.25 535.25
  Q 238.08 509.24 238.58 470.82
  A 1.04 1.02 72.2 0 1 238.98 470.02
  C 250.28 461.29 263.06 455.30 277.48 454.45
  C 294.59 453.45 309.20 461.71 309.23 480.50
  Q 309.29 507.37 309.22 534.23
  C 309.18 551.93 302.89 556.70 285.64 557.88
  A 0.69 0.68 88.2 0 0 285.00 558.57
  L 285.00 565.27
  A 0.52 0.51 0.0 0 0 285.52 565.78
  L 359.95 565.83
  A 0.48 0.47 -88.7 0 0 360.42 565.37
  L 360.62 558.58
  A 0.51 0.50 -87.0 0 0 360.16 558.06
  C 341.09 556.34 336.92 552.37 336.99 532.76
  Q 337.07 507.43 336.95 482.13
  Q 336.89 471.23 335.41 465.91
  C 328.30 440.38 302.04 433.92 278.93 438.65
  C 263.28 441.86 251.01 450.07 238.88 460.02
  A 0.54 0.54 0.0 0 1 238.00 459.58
  Z"
/>
<path fill="#2745d3" d="
  M 233.25 33.79
  Q 233.28 34.37 233.95 34.43
  Q 233.99 34.43 233.95 34.43
  C 231.34 34.54 224.30 33.24 225.48 38.21
  A 0.75 0.74 64.1 0 1 225.23 38.95
  L 223.31 40.52
  A 0.41 0.40 45.4 0 0 223.31 41.15
  L 224.66 42.26
  A 0.79 0.79 0.0 0 1 224.84 43.27
  L 222.67 46.89
  A 0.70 0.69 -49.6 0 0 222.73 47.70
  L 223.97 49.25
  A 1.29 1.27 -60.1 0 1 224.24 50.28
  L 223.32 55.38
  A 2.02 1.99 40.4 0 0 223.41 56.40
  C 224.49 59.29 221.76 59.23 220.92 60.96
  A 1.22 1.19 -42.7 0 0 220.87 61.89
  Q 222.03 65.17 222.14 68.61
  C 222.36 74.91 222.90 81.17 222.54 87.47
  C 222.44 89.26 222.77 93.53 224.96 94.00
  A 0.57 0.57 0.0 0 1 225.41 94.57
  Q 225.38 95.63 225.89 96.10
  Q 232.99 102.59 235.01 111.99
  C 235.38 113.70 236.41 115.20 236.69 116.97
  Q 237.12 119.59 237.68 120.67
  C 239.74 124.62 242.65 128.05 239.22 132.42
  A 1.50 1.48 -26.7 0 0 238.90 133.37
  L 238.95 138.49
  Q 238.96 138.99 238.76 139.45
  C 237.06 143.41 236.10 146.88 233.61 150.46
  A 1.94 1.92 4.8 0 1 232.83 151.11
  L 229.03 152.83
  A 0.53 0.53 0.0 0 0 228.78 153.56
  L 229.25 154.46
  Q 151.30 154.27 73.34 154.58
  C 59.84 154.64 46.28 154.59 32.92 154.49
  A 1.01 1.01 0.0 0 1 31.92 153.47
  Q 32.37 106.84 32.24 61.10
  C 32.22 57.05 31.79 49.52 32.15 43.68
  Q 32.44 39.09 31.95 34.79
  A 1.41 1.40 -3.1 0 1 33.36 33.23
  C 38.89 33.28 44.78 33.70 49.89 33.71
  Q 141.57 34.04 233.25 33.79
  Z"
/>
<path fill="#172bc5" d="
  M 487.71 346.25
  Q 487.52 346.73 487.00 346.92
  Q 485.90 347.31 486.48 347.55
  L 487.03 347.78
  Q 487.40 347.93 487.03 348.10
  L 486.71 348.24
  Q 485.30 348.87 486.84 348.96
  L 488.90 349.09
  A 0.91 0.91 0.0 0 1 489.65 349.57
  C 490.91 351.86 487.05 352.59 485.45 350.91
  A 0.54 0.53 -46.4 0 0 484.65 350.93
  L 484.28 351.37
  A 0.78 0.77 47.8 0 0 484.24 352.31
  Q 485.74 354.48 485.37 356.09
  Q 483.90 362.35 485.26 368.49
  C 486.15 372.48 486.03 376.00 486.49 380.26
  Q 486.94 384.48 483.81 387.96
  A 1.07 1.03 -29.3 0 0 483.55 388.83
  C 484.14 392.63 487.88 390.59 487.69 396.93
  Q 487.13 415.35 487.28 433.78
  C 487.29 434.46 487.81 435.12 487.29 435.97
  A 1.94 1.88 -30.1 0 0 487.03 436.89
  Q 486.98 450.36 487.25 463.83
  C 487.31 466.78 488.94 468.70 488.45 471.81
  C 487.72 476.33 487.70 485.37 482.52 486.91
  A 1.17 1.16 2.6 0 0 481.77 487.59
  L 480.63 490.46
  Q 480.46 490.89 480.10 491.18
  C 476.57 494.00 483.19 499.01 476.72 502.12
  A 0.82 0.79 -9.6 0 0 476.28 502.72
  Q 476.03 504.35 474.60 505.20
  A 0.48 0.47 -37.5 0 0 474.50 505.94
  Q 478.53 510.08 474.48 514.58
  A 0.39 0.39 0.0 0 0 474.65 515.22
  Q 475.18 515.38 474.99 516.00
  A 0.46 0.02 -71.9 0 1 474.82 516.44
  L 474.46 516.09
  Q 473.90 515.53 473.85 516.32
  L 473.77 517.55
  Q 473.71 518.64 474.25 517.69
  L 474.56 517.14
  A 0.59 0.58 36.0 0 1 475.47 517.00
  Q 479.50 520.78 476.13 524.97
  A 1.68 1.65 -26.0 0 0 475.78 525.96
  L 475.77 532.06
  A 0.83 0.82 -9.4 0 1 475.21 532.84
  L 473.49 533.44
  A 1.37 1.32 -82.4 0 0 472.82 533.97
  C 469.81 538.55 475.68 538.69 477.62 541.14
  A 1.15 1.14 32.4 0 1 477.84 542.10
  Q 477.12 545.28 479.01 547.67
  A 0.66 0.65 38.0 0 1 479.10 548.36
  Q 478.99 548.61 478.77 548.75
  A 0.70 0.69 -18.6 0 0 478.46 549.36
  Q 478.62 552.08 476.33 553.55
  A 0.62 0.62 0.0 0 0 476.10 554.33
  C 476.61 555.47 478.30 554.51 478.80 555.77
  Q 479.00 556.27 478.48 556.12
  Q 477.04 555.69 475.75 556.46
  L 468.54 555.87
  A 0.97 0.96 -12.1 0 1 467.77 555.38
  C 463.17 547.20 458.57 538.59 454.11 530.84
  Q 351.12 351.59 248.24 172.28
  Q 242.03 161.45 239.13 155.31
  A 0.85 0.83 78.1 0 0 238.41 154.83
  L 229.25 154.46
  L 228.78 153.56
  A 0.53 0.53 0.0 0 1 229.03 152.83
  L 232.83 151.11
  A 1.94 1.92 4.8 0 0 233.61 150.46
  C 236.10 146.88 237.06 143.41 238.76 139.45
  Q 238.96 138.99 238.95 138.49
  L 238.90 133.37
  A 1.50 1.48 -26.7 0 1 239.22 132.42
  C 242.65 128.05 239.74 124.62 237.68 120.67
  Q 237.12 119.59 236.69 116.97
  C 236.41 115.20 235.38 113.70 235.01 111.99
  Q 232.99 102.59 225.89 96.10
  Q 225.38 95.63 225.41 94.57
  A 0.57 0.57 0.0 0 0 224.96 94.00
  C 222.77 93.53 222.44 89.26 222.54 87.47
  C 222.90 81.17 222.36 74.91 222.14 68.61
  Q 222.03 65.17 220.87 61.89
  A 1.22 1.19 -42.7 0 1 220.92 60.96
  C 221.76 59.23 224.49 59.29 223.41 56.40
  A 2.02 1.99 40.4 0 1 223.32 55.38
  L 224.24 50.28
  A 1.29 1.27 -60.1 0 0 223.97 49.25
  L 222.73 47.70
  A 0.70 0.69 -49.6 0 1 222.67 46.89
  L 224.84 43.27
  A 0.79 0.79 0.0 0 0 224.66 42.26
  L 223.31 41.15
  A 0.41 0.40 45.4 0 1 223.31 40.52
  L 225.23 38.95
  A 0.75 0.74 64.1 0 0 225.48 38.21
  C 224.30 33.24 231.34 34.54 233.95 34.43
  Q 233.99 34.43 233.95 34.43
  Q 233.28 34.37 233.25 33.79
  L 306.74 33.75
  A 1.20 1.18 -14.5 0 1 307.78 34.35
  Q 397.03 190.05 486.38 345.59
  C 486.68 346.12 487.14 346.27 487.71 346.25
  Z"
/>
<path fill="#0c17ba" d="
  M 475.75 556.46
  Q 477.04 555.69 478.48 556.12
  Q 479.00 556.27 478.80 555.77
  C 478.30 554.51 476.61 555.47 476.10 554.33
  A 0.62 0.62 0.0 0 1 476.33 553.55
  Q 478.62 552.08 478.46 549.36
  A 0.70 0.69 -18.6 0 1 478.77 548.75
  Q 478.99 548.61 479.10 548.36
  A 0.66 0.65 38.0 0 0 479.01 547.67
  Q 477.12 545.28 477.84 542.10
  A 1.15 1.14 32.4 0 0 477.62 541.14
  C 475.68 538.69 469.81 538.55 472.82 533.97
  A 1.37 1.32 -82.4 0 1 473.49 533.44
  L 475.21 532.84
  A 0.83 0.82 -9.4 0 0 475.77 532.06
  L 475.78 525.96
  A 1.68 1.65 -26.0 0 1 476.13 524.97
  Q 479.50 520.78 475.47 517.00
  A 0.59 0.58 36.0 0 0 474.56 517.14
  L 474.25 517.69
  Q 473.71 518.64 473.77 517.55
  L 473.85 516.32
  Q 473.90 515.53 474.46 516.09
  L 474.82 516.44
  A 0.46 0.02 -71.9 0 0 474.99 516.00
  Q 475.18 515.38 474.65 515.22
  A 0.39 0.39 0.0 0 1 474.48 514.58
  Q 478.53 510.08 474.50 505.94
  A 0.48 0.47 -37.5 0 1 474.60 505.20
  Q 476.03 504.35 476.28 502.72
  A 0.82 0.79 -9.6 0 1 476.72 502.12
  C 483.19 499.01 476.57 494.00 480.10 491.18
  Q 480.46 490.89 480.63 490.46
  L 481.77 487.59
  A 1.17 1.16 2.6 0 1 482.52 486.91
  C 487.70 485.37 487.72 476.33 488.45 471.81
  C 488.94 468.70 487.31 466.78 487.25 463.83
  Q 486.98 450.36 487.03 436.89
  A 1.94 1.88 -30.1 0 1 487.29 435.97
  C 487.81 435.12 487.29 434.46 487.28 433.78
  Q 487.13 415.35 487.69 396.93
  C 487.88 390.59 484.14 392.63 483.55 388.83
  A 1.07 1.03 -29.3 0 1 483.81 387.96
  Q 486.94 384.48 486.49 380.26
  C 486.03 376.00 486.15 372.48 485.26 368.49
  Q 483.90 362.35 485.37 356.09
  Q 485.74 354.48 484.24 352.31
  A 0.78 0.77 47.8 0 1 484.28 351.37
  L 484.65 350.93
  A 0.54 0.53 -46.4 0 1 485.45 350.91
  C 487.05 352.59 490.91 351.86 489.65 349.57
  A 0.91 0.91 0.0 0 0 488.90 349.09
  L 486.84 348.96
  Q 485.30 348.87 486.71 348.24
  L 487.03 348.10
  Q 487.40 347.93 487.03 347.78
  L 486.48 347.55
  Q 485.90 347.31 487.00 346.92
  Q 487.52 346.73 487.71 346.25
  C 488.53 345.54 489.70 344.65 490.24 343.70
  C 548.04 242.36 606.60 141.45 664.42 40.12
  Q 665.85 37.62 666.80 35.26
  A 2.36 2.35 10.8 0 1 668.99 33.78
  L 804.29 33.73
  A 1.42 1.42 0.0 0 1 805.52 35.85
  Q 671.78 268.95 538.50 501.28
  Q 530.13 515.88 513.01 545.04
  Q 511.12 548.26 508.74 553.92
  C 507.80 556.17 506.48 556.47 504.25 556.48
  Q 490.00 556.54 475.75 556.46
  Z"
/>
<rect fill="#e23b84" x="32.00" y="202.59" width="119.46" height="353.30" rx="1.22"/>
<path fill="#424242" d="
  M 900.99 437.50
  A 0.66 0.66 0.0 0 0 900.33 438.16
  Q 900.20 482.51 900.30 526.69
  Q 900.33 535.54 903.52 542.51
  C 908.30 552.95 932.27 548.29 940.95 546.21
  A 0.67 0.66 83.2 0 1 941.77 546.86
  L 941.71 556.10
  A 0.77 0.77 0.0 0 1 941.24 556.81
  C 926.22 563.27 893.38 572.89 882.30 555.66
  Q 876.39 546.46 876.40 535.31
  Q 876.42 487.80 876.53 438.99
  A 1.49 1.49 0.0 0 0 875.04 437.50
  L 855.41 437.50
  A 0.60 0.60 0.0 0 1 854.81 436.92
  L 854.58 429.21
  A 0.67 0.66 -11.6 0 1 855.01 428.56
  C 858.95 427.08 863.34 425.90 866.79 424.05
  Q 884.24 414.73 891.87 395.56
  C 892.46 394.07 898.53 394.84 899.71 395.09
  A 0.55 0.55 0.0 0 1 900.15 395.62
  L 900.51 425.40
  A 0.64 0.63 -0.0 0 0 901.15 426.03
  L 939.13 425.98
  A 0.58 0.58 0.0 0 1 939.71 426.56
  L 939.77 436.87
  A 0.64 0.63 0.0 0 1 939.13 437.50
  L 900.99 437.50
  Z"
/>
<path fill="#424242" d="
  M 649.57 558.11
  C 625.34 543.77 617.27 515.43 618.89 488.94
  C 620.26 466.67 628.01 444.33 647.36 431.27
  C 667.59 417.61 694.48 420.03 712.14 436.59
  Q 728.64 452.05 729.23 476.31
  A 0.46 0.46 0.0 0 1 728.77 476.78
  L 639.94 477.03
  A 0.55 0.55 0.0 0 0 639.39 477.56
  C 638.69 497.01 644.04 517.02 658.79 530.25
  C 671.17 541.34 686.99 544.18 703.00 539.99
  C 710.82 537.94 717.37 532.41 722.96 526.91
  A 0.75 0.74 -51.8 0 1 723.86 526.80
  Q 726.52 528.33 728.12 530.93
  A 1.00 0.98 40.8 0 1 728.19 531.82
  Q 727.68 533.03 726.05 535.54
  C 709.12 561.58 678.15 575.02 649.57 558.11
  Z
  M 641.41 467.76
  L 700.29 467.85
  A 0.72 0.72 0.0 0 0 701.00 467.05
  C 698.78 448.26 690.49 429.00 667.38 432.47
  C 650.85 434.96 642.75 451.87 640.56 466.78
  A 0.86 0.86 0.0 0 0 641.41 467.76
  Z"
/>
<path fill="#424242" d="
  M 760.86 486.89
  C 745.87 473.27 745.67 449.32 759.12 435.16
  C 777.07 416.25 807.66 420.67 827.15 434.04
  A 1.04 1.02 -74.2 0 1 827.59 434.85
  L 828.65 466.62
  A 0.49 0.49 0.0 0 1 828.14 467.13
  L 821.50 466.91
  A 0.69 0.67 85.7 0 1 820.86 466.35
  Q 818.47 453.61 811.33 443.18
  C 805.07 434.02 797.30 431.25 786.48 432.47
  C 772.84 434.00 767.43 446.25 770.76 458.51
  C 772.69 465.63 781.46 471.12 787.80 474.41
  C 806.36 484.03 835.13 494.68 837.38 519.42
  C 840.41 552.79 811.78 569.94 781.93 564.53
  C 772.13 562.76 762.27 559.56 753.80 554.15
  A 1.04 1.04 0.0 0 1 753.32 553.29
  L 752.48 518.02
  A 0.51 0.51 0.0 0 1 752.99 517.50
  L 760.62 517.50
  A 0.56 0.56 0.0 0 1 761.18 518.02
  C 762.35 531.13 768.94 545.63 780.20 552.18
  C 795.36 560.99 818.52 553.41 818.44 533.03
  C 818.38 519.12 803.04 510.78 793.05 506.06
  C 781.71 500.69 770.26 495.42 760.86 486.89
  Z"
/>
<path fill="#424242" d="
  M 1030.45 543.10
  A 0.24 0.24 0.0 0 0 1030.05 542.99
  C 1014.09 558.82 988.83 574.85 966.74 558.75
  C 955.60 550.63 951.97 534.64 956.52 521.96
  C 962.58 505.06 981.68 497.83 997.22 492.28
  Q 1013.21 486.58 1029.43 481.55
  A 0.71 0.70 82.4 0 0 1029.92 480.90
  Q 1030.52 465.50 1029.94 455.01
  C 1029.24 442.66 1021.05 434.30 1008.99 432.73
  C 1001.63 431.76 992.97 433.03 987.00 437.78
  C 977.00 445.74 982.06 456.41 987.24 465.05
  A 1.60 1.60 0.0 0 1 986.76 467.21
  Q 977.14 473.66 966.01 476.79
  A 0.93 0.93 0.0 0 1 964.98 476.39
  C 953.00 457.26 961.05 437.07 981.31 428.57
  C 996.11 422.36 1014.42 420.42 1030.52 424.61
  C 1050.15 429.73 1054.19 444.96 1054.22 463.01
  Q 1054.28 497.63 1054.24 532.25
  C 1054.23 536.20 1055.80 541.59 1060.21 543.11
  C 1063.69 544.31 1068.94 541.48 1072.25 539.94
  A 0.51 0.51 0.0 0 1 1072.92 540.19
  C 1074.11 542.73 1075.65 547.82 1073.66 549.91
  C 1066.91 557.00 1058.64 566.01 1047.86 565.40
  C 1034.06 564.62 1033.14 553.36 1030.45 543.10
  Z
  M 980.29 529.33
  C 981.69 542.20 994.28 549.17 1006.36 546.33
  C 1015.48 544.19 1022.78 538.47 1029.57 532.29
  A 1.28 1.26 -21.4 0 0 1029.99 531.35
  L 1030.18 489.58
  A 0.40 0.39 77.6 0 0 1029.62 489.22
  Q 1014.54 496.15 999.56 503.26
  C 988.78 508.39 978.81 515.72 980.29 529.33
  Z"
/>
<path fill="#ffffff" d="
  M 641.41 467.76
  A 0.86 0.86 0.0 0 1 640.56 466.78
  C 642.75 451.87 650.85 434.96 667.38 432.47
  C 690.49 429.00 698.78 448.26 701.00 467.05
  A 0.72 0.72 0.0 0 1 700.29 467.85
  L 641.41 467.76
  Z"
/>
<path fill="#424242" d="
  M 238.00 459.58
  A 0.54 0.54 0.0 0 0 238.88 460.02
  C 251.01 450.07 263.28 441.86 278.93 438.65
  C 302.04 433.92 328.30 440.38 335.41 465.91
  Q 336.89 471.23 336.95 482.13
  Q 337.07 507.43 336.99 532.76
  C 336.92 552.37 341.09 556.34 360.16 558.06
  A 0.51 0.50 -87.0 0 1 360.62 558.58
  L 360.42 565.37
  A 0.48 0.47 -88.7 0 1 359.95 565.83
  L 285.52 565.78
  A 0.52 0.51 -0.0 0 1 285.00 565.27
  L 285.00 558.57
  A 0.69 0.68 88.2 0 1 285.64 557.88
  C 302.89 556.70 309.18 551.93 309.22 534.23
  Q 309.29 507.37 309.23 480.50
  C 309.20 461.71 294.59 453.45 277.48 454.45
  C 263.06 455.30 250.28 461.29 238.98 470.02
  A 1.04 1.02 72.2 0 0 238.58 470.82
  Q 238.08 509.24 238.25 535.25
  C 238.38 554.33 245.23 556.82 262.67 558.04
  A 0.47 0.47 0.0 0 1 263.11 558.51
  L 263.13 565.27
  A 0.49 0.49 0.0 0 1 262.74 565.75
  C 260.90 566.15 259.05 565.77 257.74 565.77
  Q 227.74 565.74 197.75 565.75
  C 195.09 565.75 190.33 566.18 186.52 565.73
  A 0.52 0.51 -88.1 0 1 186.07 565.24
  L 185.79 559.24
  A 1.43 1.43 0.0 0 1 187.24 557.74
  C 203.46 558.05 210.05 551.90 210.34 535.81
  Q 210.98 500.11 210.69 464.40
  A 0.75 0.74 11.1 0 0 210.23 463.73
  L 187.58 454.73
  A 0.93 0.92 -79.3 0 1 187.00 453.87
  L 187.00 449.90
  A 0.74 0.74 0.0 0 1 187.61 449.17
  C 197.18 447.32 208.34 443.91 215.83 442.09
  Q 225.17 439.82 234.50 437.53
  C 237.47 436.80 238.11 438.95 238.19 441.39
  Q 238.48 450.46 238.00 459.58
  Z"
/>
<path fill="#ffffff" d="
  M 1006.36 546.33
  C 994.28 549.17 981.69 542.20 980.29 529.33
  C 978.81 515.72 988.78 508.39 999.56 503.26
  Q 1014.54 496.15 1029.62 489.22
  A 0.40 0.39 77.6 0 1 1030.18 489.58
  L 1029.99 531.35
  A 1.28 1.26 -21.4 0 1 1029.57 532.29
  C 1022.78 538.47 1015.48 544.19 1006.36 546.33
  Z"
/>
</svg>
